<svg id="visual" viewBox="0 0 900 600" width="900" height="600" xmlns="http://www.w3.org/2000/svg" xmlns:xlink="http://www.w3.org/1999/xlink" version="1.1"><path d="M202 0L213.7 14.3C225.3 28.7 248.7 57.3 256.5 85.8C264.3 114.3 256.7 142.7 242.2 171.2C227.7 199.7 206.3 228.3 201.8 257C197.3 285.7 209.7 314.3 223.7 343C237.7 371.7 253.3 400.3 251.3 428.8C249.3 457.3 229.7 485.7 226.3 514.2C223 542.7 236 571.3 242.5 585.7L249 600L0 600L0 585.7C0 571.3 0 542.7 0 514.2C0 485.7 0 457.3 0 428.8C0 400.3 0 371.7 0 343C0 314.3 0 285.7 0 257C0 228.3 0 199.7 0 171.2C0 142.7 0 114.3 0 85.8C0 57.3 0 28.7 0 14.3L0 0Z" fill="#275e72"></path><path d="M165 0L174.3 14.3C183.7 28.7 202.3 57.3 203.5 85.8C204.7 114.3 188.3 142.7 179.8 171.2C171.3 199.7 170.7 228.3 169.2 257C167.7 285.7 165.3 314.3 165.3 343C165.3 371.7 167.7 400.3 164.7 428.8C161.7 457.3 153.3 485.7 164.5 514.2C175.7 542.7 206.3 571.3 221.7 585.7L237 600L0 600L0 585.7C0 571.3 0 542.7 0 514.2C0 485.7 0 457.3 0 428.8C0 400.3 0 371.7 0 343C0 314.3 0 285.7 0 257C0 228.3 0 199.7 0 171.2C0 142.7 0 114.3 0 85.8C0 57.3 0 28.7 0 14.3L0 0Z" fill="#237084"></path><path d="M115 0L117 14.3C119 28.7 123 57.3 135.3 85.8C147.7 114.3 168.3 142.7 170.2 171.2C172 199.7 155 228.3 147.3 257C139.7 285.7 141.3 314.3 136.8 343C132.3 371.7 121.7 400.3 129 428.8C136.3 457.3 161.7 485.7 165.8 514.2C170 542.7 153 571.3 144.5 585.7L136 600L0 600L0 585.7C0 571.3 0 542.7 0 514.2C0 485.7 0 457.3 0 428.8C0 400.3 0 371.7 0 343C0 314.3 0 285.7 0 257C0 228.3 0 199.7 0 171.2C0 142.7 0 114.3 0 85.8C0 57.3 0 28.7 0 14.3L0 0Z" fill="#1e8394"></path><path d="M142 0L141 14.3C140 28.7 138 57.3 132.2 85.8C126.3 114.3 116.7 142.7 112.3 171.2C108 199.7 109 228.3 107.5 257C106 285.7 102 314.3 96.2 343C90.3 371.7 82.7 400.3 82.8 428.8C83 457.3 91 485.7 97.5 514.2C104 542.7 109 571.3 111.5 585.7L114 600L0 600L0 585.7C0 571.3 0 542.7 0 514.2C0 485.7 0 457.3 0 428.8C0 400.3 0 371.7 0 343C0 314.3 0 285.7 0 257C0 228.3 0 199.7 0 171.2C0 142.7 0 114.3 0 85.8C0 57.3 0 28.7 0 14.3L0 0Z" fill="#1a96a3"></path><path d="M49 0L52.8 14.3C56.7 28.7 64.3 57.3 71.2 85.8C78 114.3 84 142.7 81.8 171.2C79.7 199.7 69.3 228.3 68.8 257C68.3 285.7 77.7 314.3 80 343C82.3 371.7 77.7 400.3 69 428.8C60.3 457.3 47.7 485.7 42.8 514.2C38 542.7 41 571.3 42.5 585.7L44 600L0 600L0 585.7C0 571.3 0 542.7 0 514.2C0 485.7 0 457.3 0 428.8C0 400.3 0 371.7 0 343C0 314.3 0 285.7 0 257C0 228.3 0 199.7 0 171.2C0 142.7 0 114.3 0 85.8C0 57.3 0 28.7 0 14.3L0 0Z" fill="#1caaaf"></path></svg>